<svg width="125" height="54" viewBox="0 0 125 54" fill="none" xmlns="http://www.w3.org/2000/svg">
<g filter="url(#filter0_d_7503_955)">
<path d="M31.0646 0.585521V44.9674C31.0664 45.0687 31.0427 45.1687 30.9956 45.2576C30.9485 45.3465 30.8797 45.4212 30.7961 45.4743C30.7125 45.5274 30.6169 45.5571 30.5188 45.5604C30.4206 45.5637 30.3234 45.5406 30.2365 45.4933L22.1301 41.3046C22.0356 41.2568 21.956 41.1827 21.9002 41.0907C21.8444 40.9987 21.8146 40.8925 21.8143 40.784V4.77158C21.8146 4.66305 21.8444 4.55679 21.9002 4.46478C21.956 4.37278 22.0356 4.29869 22.1301 4.25088L30.234 0.0673947C30.3205 0.0203009 30.4173 -0.00282707 30.515 0.000275741C30.6127 0.00337855 30.708 0.0326058 30.7915 0.0850951C30.8749 0.137584 30.9438 0.211536 30.9912 0.299709C31.0386 0.387881 31.0631 0.487251 31.0621 0.588086L31.0646 0.585521ZM94.9264 16.4936V44.9726C94.9261 45.0721 94.9011 45.1698 94.8538 45.2566C94.8066 45.3433 94.7387 45.4162 94.6566 45.4683C94.5744 45.5205 94.4807 45.5501 94.3843 45.5545C94.288 45.5588 94.1921 45.5378 94.1059 45.4933L85.9895 41.3046C85.8955 41.2565 85.8164 41.1822 85.761 41.0903C85.7057 40.9983 85.6763 40.8922 85.6762 40.784V16.4936C85.6762 16.3391 85.7356 16.191 85.8415 16.0818C85.9473 15.9726 86.0909 15.9113 86.2406 15.9113H94.362C94.5117 15.9113 94.6553 15.9726 94.7611 16.0818C94.867 16.191 94.9264 16.3391 94.9264 16.4936ZM83.8186 43.9722L83.6595 44.0953C82.7247 44.8018 81.6656 45.3141 80.5412 45.6036C79.1751 45.9677 77.7462 46.0044 76.3642 45.7108C74.9822 45.4172 73.6836 44.8011 72.5682 43.9097C71.4527 43.0183 70.5499 41.8754 69.9289 40.5684C69.308 39.2614 68.9854 37.8251 68.9858 36.3696V16.5705C68.9858 16.4165 69.045 16.2688 69.1503 16.1597C69.2556 16.0506 69.3985 15.9889 69.5478 15.9883L74.7548 16.0755H77.6543C77.6865 16.0722 77.719 16.0722 77.7512 16.0755C77.8787 16.1021 77.9934 16.1733 78.0759 16.277C78.1583 16.3808 78.2035 16.5107 78.2038 16.6449V23.5267C78.2009 23.5634 78.2009 23.6003 78.2038 23.637V39.1475C78.2051 40.3206 78.6575 41.4452 79.4616 42.2747C80.2658 43.1041 81.356 43.5707 82.4933 43.5721H83.6147C83.651 43.5645 83.6885 43.5662 83.724 43.5769C83.7596 43.5876 83.792 43.607 83.8187 43.6335C83.8454 43.6599 83.8654 43.6927 83.8771 43.7289C83.8887 43.7651 83.8917 43.8037 83.8858 43.8414C83.8772 43.8905 83.8537 43.938 83.8186 43.9722ZM19.7777 19.5074C19.2717 19.2982 18.7314 19.1911 18.1863 19.1919H17.5398C16.9743 19.1919 16.4144 19.307 15.8921 19.5305C15.3699 19.754 14.8955 20.0816 14.4961 20.4945C14.0967 20.9074 13.7802 21.3975 13.5648 21.9367C13.3493 22.476 13.239 23.0538 13.2404 23.637V39.1475C13.2436 40.3215 13.6981 41.4462 14.504 42.2751C15.3099 43.104 16.4016 43.5695 17.5398 43.5695H18.6612C18.6974 43.565 18.7342 43.5696 18.7683 43.5831C18.8024 43.5965 18.8327 43.6183 18.8568 43.6467C18.8808 43.675 18.8977 43.7089 18.9061 43.7456C18.9145 43.7822 18.9141 43.8204 18.9049 43.8568C18.8934 43.905 18.8672 43.9481 18.8303 43.9799L18.6737 44.103C17.2939 45.1354 15.6643 45.7541 13.965 45.891C12.2657 46.0279 10.5628 45.6775 9.04439 44.8786C7.52602 44.0797 6.25131 42.8634 5.3611 41.364C4.47089 39.8647 3.99984 38.1406 4 36.3824V25.7788C4 20.5001 8.18999 16.0447 13.305 16.0729C14.5698 16.0813 15.8194 16.358 16.9761 16.8858C18.1328 17.4135 19.1719 18.181 20.0289 19.1406C20.0593 19.18 20.0765 19.2284 20.078 19.2787C20.0795 19.3291 20.0652 19.3785 20.0373 19.4198C20.0093 19.461 19.9692 19.4918 19.9229 19.5076C19.8765 19.5234 19.824 19.5233 19.7777 19.5074ZM120.996 35.9618C120.996 38.5781 120.308 40.7429 118.927 42.4563C118.721 42.7026 118.53 42.9308 118.288 43.1617C116.655 44.8033 114.558 45.6856 112.012 45.8549C112.005 45.859 111.997 45.8611 111.989 45.8611C111.98 45.8611 111.972 45.859 111.965 45.8549L111.726 45.8729H110.741C109.102 45.8151 107.471 45.6083 105.868 45.2547L105.639 45.2034C104.455 44.8877 103.295 44.4839 102.168 43.9953C101.759 43.8106 101.411 43.5099 101.162 43.1284C100.913 42.7469 100.775 42.3003 100.763 41.8407L100.539 36.3029C100.537 36.2611 100.544 36.2194 100.558 36.1802C100.572 36.1411 100.594 36.1053 100.622 36.0751C100.651 36.0449 100.684 36.0209 100.722 36.0045C100.759 35.9881 100.799 35.9797 100.84 35.9797C101.068 35.9797 101.277 36.1131 101.382 36.3209C102.508 38.5489 103.983 40.5706 105.746 42.305C107.238 43.767 108.794 44.634 110.421 44.9085C110.799 44.9726 111.182 45.0059 111.565 45.0033C111.756 45.0033 111.962 45.0033 112.136 44.9777H112.231C112.299 44.977 112.368 44.9701 112.435 44.9572C112.79 44.9264 113.144 44.8469 113.479 44.7263C113.623 44.6827 113.763 44.634 113.9 44.5724C114.006 44.5288 114.113 44.4827 114.213 44.4288C114.844 44.1013 115.401 43.6397 115.847 43.0745C115.936 42.9719 116.021 42.8642 116.095 42.7513C116.172 42.6333 116.252 42.5204 116.319 42.4076C116.568 41.8074 116.687 41.161 116.675 40.5095C116.707 39.8312 116.57 39.1558 116.278 38.5474C115.985 37.939 115.547 37.418 115.004 37.0339C113.535 36.0693 111.923 35.3597 110.232 34.9332C108.718 34.5268 107.234 34.0073 105.793 33.3788C105.055 33.0268 104.357 32.5934 103.709 32.0861C103.523 31.9476 103.336 31.786 103.15 31.6321C101.466 30.1931 100.623 27.9642 100.623 24.94C100.618 23.9654 100.768 22.9958 101.066 22.0698C101.106 21.9595 101.146 21.8492 101.193 21.7364C101.332 21.3619 101.494 20.9977 101.678 20.6411C101.678 20.6206 101.698 20.5975 101.71 20.5719C102.115 19.8486 102.613 19.1817 103.185 18.5917C104.405 17.3385 105.966 16.4976 107.661 16.1806C108.486 16.0113 109.327 15.9293 110.167 15.9344C110.64 15.9344 111.134 15.96 111.624 16.0062C112.744 16.1193 113.851 16.3391 114.931 16.6628C116.329 17.0989 117.692 17.6529 119 18.3173C119.006 18.3207 119.011 18.3259 119.015 18.3322C119.018 18.3386 119.02 18.3458 119.019 18.3532L119.136 21.7415L119.226 24.4886C119.227 24.5288 119.221 24.5688 119.207 24.6062C119.193 24.6437 119.171 24.6778 119.144 24.7066C119.117 24.7354 119.084 24.7581 119.048 24.7736C119.012 24.789 118.974 24.7968 118.935 24.7964C118.831 24.7962 118.729 24.7673 118.639 24.7127C118.55 24.6582 118.476 24.5799 118.425 24.486C117.704 23.1471 116.883 21.8698 115.971 20.6642C115.558 20.1201 115.118 19.5995 114.65 19.1047L114.541 18.9944C113.131 17.5375 111.599 16.8116 109.946 16.8116C108.292 16.8116 107.007 17.2041 106.091 17.9915C105.651 18.3782 105.301 18.8631 105.068 19.4096C104.836 19.9562 104.726 20.55 104.749 21.1464C104.729 21.7576 104.869 22.363 105.156 22.8982C105.443 23.4334 105.865 23.8784 106.377 24.1859C107.628 24.9601 108.982 25.5416 110.396 25.9122L111.192 26.1353C112.343 26.4585 113.119 26.6894 113.531 26.8279C114.029 26.992 114.65 27.2178 115.389 27.5102C116.023 27.7461 116.632 28.0539 117.204 28.4233C117.729 28.785 118.229 29.1877 118.696 29.6288C119.194 30.0828 119.611 30.6266 119.922 31.2345C120.671 32.6889 121.041 34.3176 120.996 35.9643V35.9618ZM64.3681 31.2781V30.9447V30.5035V30.1854C64.3681 29.9597 64.3433 29.7289 64.3209 29.5032L64.296 29.2518L64.2737 29.0594C64.2728 28.9346 64.2561 28.8104 64.2239 28.6901C64.2239 28.5669 64.1891 28.4438 64.1667 28.3258C64.1419 28.2078 64.1394 28.1668 64.122 28.0847L64.0598 27.7564C63.9992 27.4616 63.9287 27.169 63.8484 26.8792L63.7539 26.5406L63.642 26.1918C63.6047 26.0789 63.5674 25.966 63.5252 25.8532C63.4458 25.6254 63.3612 25.3997 63.2715 25.176L63.1646 24.9144C63.108 24.7741 63.0441 24.6371 62.9731 24.504C62.906 24.3809 62.819 24.1654 62.7294 24.0064C62.502 23.5456 62.2479 23.0994 61.9685 22.67C61.8578 22.4973 61.7434 22.3271 61.6254 22.1596L61.4538 21.9185L61.3469 21.7749C61.0032 21.3137 60.6328 20.8742 60.2378 20.459L60.0215 20.2359C59.7682 19.9765 59.5044 19.7284 59.2307 19.492L59.1711 19.4382C59.013 19.3 58.8539 19.1632 58.6936 19.0278L58.4201 18.8123C58.1423 18.5993 57.8561 18.3982 57.5622 18.2095C57.4652 18.148 57.3658 18.0813 57.2663 18.0248L56.9679 17.8453C56.8676 17.7849 56.7656 17.7276 56.662 17.6734C56.5601 17.6221 56.4606 17.5632 56.3562 17.5093L56.0429 17.3503C55.9387 17.2965 55.8325 17.2469 55.7246 17.2015L55.4063 17.0578C55.1898 16.9646 54.9709 16.8774 54.7498 16.7962L54.4191 16.6757L54.0809 16.5654L53.7427 16.4628C53.5155 16.3967 53.2867 16.3368 53.0564 16.2832L52.7779 16.2217L52.3552 16.1396C52.1177 16.0945 51.8789 16.0577 51.639 16.0293L51.281 15.9831L50.7588 15.937H49.1623C46.8896 16.038 44.6713 16.6863 42.6848 17.83C40.6984 18.9736 38.999 20.5809 37.7226 22.5233C36.4461 24.4656 35.628 26.6891 35.3337 29.016C35.0394 31.3428 35.2771 33.7084 36.0277 35.9236C36.7783 38.1387 38.021 40.1419 39.6565 41.773C41.292 43.4041 43.2748 44.6177 45.4464 45.3169C47.6179 46.0161 49.918 46.1814 52.1625 45.7996C54.4071 45.4178 56.5339 44.4995 58.3729 43.1181L58.6041 42.9385C58.7906 42.7898 58.9771 42.6461 59.1512 42.4948C59.2109 42.4486 59.268 42.3999 59.3252 42.346L59.4695 42.2075L59.5142 42.169C60.5719 41.1913 61.4873 40.0614 62.2321 38.814C62.2396 38.7987 62.2446 38.7781 62.2321 38.7627C62.2266 38.7562 62.2198 38.751 62.2122 38.7474C62.2037 38.7434 62.1943 38.7416 62.1849 38.7422C62.1759 38.7436 62.1674 38.7471 62.16 38.7525L62.1103 38.791L61.6527 39.2219C60.7162 40.1914 59.5997 40.9562 58.3701 41.4705C57.1404 41.9849 55.8229 42.2381 54.4962 42.2152C52.9379 42.2165 51.4013 41.8377 50.012 41.1098C48.6226 40.3819 47.4198 39.3254 46.5016 38.0266C45.255 36.2802 44.584 34.1676 44.5869 31.9989V31.2807H64.3681V31.2781ZM49.5552 17.3092C50.8672 17.3119 52.1246 17.8514 53.0514 18.8094C53.9782 19.7673 54.4987 21.0653 54.4987 22.4187V30.6933H44.6018V22.4187C44.6025 21.0638 45.1246 19.7646 46.0534 18.8065C46.9822 17.8484 48.2417 17.3099 49.5552 17.3092Z" fill="#0056FE"/>
</g>
<defs>
<filter id="filter0_d_7503_955" x="0" y="0" width="125" height="54" filterUnits="userSpaceOnUse" color-interpolation-filters="sRGB">
<feFlood flood-opacity="0" result="BackgroundImageFix"/>
<feColorMatrix in="SourceAlpha" type="matrix" values="0 0 0 0 0 0 0 0 0 0 0 0 0 0 0 0 0 0 127 0" result="hardAlpha"/>
<feOffset dy="4"/>
<feGaussianBlur stdDeviation="2"/>
<feComposite in2="hardAlpha" operator="out"/>
<feColorMatrix type="matrix" values="0 0 0 0 0 0 0 0 0 0 0 0 0 0 0 0 0 0 0.25 0"/>
<feBlend mode="normal" in2="BackgroundImageFix" result="effect1_dropShadow_7503_955"/>
<feBlend mode="normal" in="SourceGraphic" in2="effect1_dropShadow_7503_955" result="shape"/>
</filter>
</defs>
</svg>
